<svg width="15" height="18" viewBox="0 0 15 18" fill="none" xmlns="http://www.w3.org/2000/svg">
<path d="M14.2185 15.075L13.201 3.83027C13.1792 3.58062 12.9648 3.3916 12.7141 3.3916H10.6211C10.5921 1.5157 9.02961 0 7.11104 0C5.19248 0 3.63001 1.5157 3.60094 3.3916H1.50796C1.25361 3.3916 1.04286 3.58062 1.02105 3.83027L0.00363373 15.075C0.00363373 15.0893 0 15.1035 0 15.1178C0 16.3981 1.19547 17.4395 2.6671 17.4395H11.555C13.0266 17.4395 14.2221 16.3981 14.2221 15.1178C14.2221 15.1035 14.2221 15.0893 14.2185 15.075ZM7.11104 0.962916C8.4882 0.962916 9.61099 2.04709 9.64006 3.3916H4.58203C4.6111 2.04709 5.73389 0.962916 7.11104 0.962916ZM11.555 16.4766H2.6671C1.74415 16.4766 0.995619 15.8774 0.981085 15.1392L1.9549 4.35809H3.59731V5.82029C3.59731 6.08777 3.81533 6.30175 4.08785 6.30175C4.36037 6.30175 4.57839 6.08777 4.57839 5.82029V4.35809H9.64006V5.82029C9.64006 6.08777 9.85808 6.30175 10.1306 6.30175C10.4031 6.30175 10.6211 6.08777 10.6211 5.82029V4.35809H12.2636L13.241 15.1392C13.2265 15.8774 12.4743 16.4766 11.555 16.4766Z" fill="black"/>
</svg>
