<svg width="16" height="15" viewBox="0 0 16 15" fill="none" xmlns="http://www.w3.org/2000/svg">
<path d="M14.7076 1.30591C13.8698 0.468093 12.7606 0.010176 11.5768 0.010176C10.393 0.010176 9.28047 0.471485 8.44265 1.3093L8.00509 1.74687L7.56074 1.30252C6.72292 0.464701 5.60696 0 4.42316 0C3.24275 0 2.13018 0.461309 1.29575 1.29574C0.457936 2.13355 -0.0033734 3.24612 1.85735e-05 4.42992C1.85735e-05 5.61372 0.46472 6.7229 1.30254 7.56072L7.67267 13.9309C7.76087 14.019 7.87958 14.0665 7.99491 14.0665C8.11024 14.0665 8.22896 14.0224 8.31715 13.9342L14.7009 7.57429C15.5387 6.73647 16 5.6239 16 4.4401C16.0034 3.2563 15.5455 2.14373 14.7076 1.30591ZM14.0564 6.92642L7.99491 12.9641L1.94701 6.91624C1.28219 6.25142 0.915853 5.3695 0.915853 4.42992C0.915853 3.49035 1.27879 2.60843 1.94362 1.947C2.60506 1.28556 3.48697 0.919226 4.42316 0.919226C5.36274 0.919226 6.24804 1.28556 6.91287 1.95039L7.67946 2.71697C7.85923 2.89675 8.14755 2.89675 8.32733 2.71697L9.08713 1.95717C9.75196 1.29234 10.6373 0.92601 11.5734 0.92601C12.5096 0.92601 13.3916 1.29234 14.0564 1.95378C14.7212 2.61861 15.0841 3.50052 15.0841 4.4401C15.0875 5.37968 14.7212 6.26159 14.0564 6.92642Z" fill="black"/>
</svg>
